<svg xmlns="http://www.w3.org/2000/svg" xmlns:xlink="http://www.w3.org/1999/xlink" version="1.1" width="256" height="256" viewBox="0 0 256 256" xml:space="preserve">

<defs>
</defs>
<g style="stroke: none; stroke-width: 0; stroke-dasharray: none; stroke-linecap: butt; stroke-linejoin: miter; stroke-miterlimit: 10; fill: none; fill-rule: nonzero; opacity: 1;" transform="translate(1.4065934065934016 1.4065934065934016) scale(2.81 2.81)" >
	<rect x="34.48" y="68.97" rx="0" ry="0" width="21.04" height="17.15" style="stroke: none; stroke-width: 1; stroke-dasharray: none; stroke-linecap: butt; stroke-linejoin: miter; stroke-miterlimit: 10; fill: rgb(214,224,235); fill-rule: nonzero; opacity: 1;" transform=" matrix(1 0 0 1 0 0) "/>
	<path d="M 3.3 14.345 v 45.471 c 28.223 3.294 56.047 3.479 83.401 0 V 14.345 H 3.3 z" style="stroke: none; stroke-width: 1; stroke-dasharray: none; stroke-linecap: butt; stroke-linejoin: miter; stroke-miterlimit: 10; fill: rgb(64,89,107); fill-rule: nonzero; opacity: 1;" transform=" matrix(1 0 0 1 0 0) " stroke-linecap="round" />
	<path d="M 86.7 59.816 v 8.236 c 0 2.688 -2.179 4.867 -4.867 4.867 H 8.167 c -2.688 0 -4.867 -2.179 -4.867 -4.867 v -8.236 H 86.7 z" style="stroke: none; stroke-width: 1; stroke-dasharray: none; stroke-linecap: butt; stroke-linejoin: miter; stroke-miterlimit: 10; fill: rgb(176,182,188); fill-rule: nonzero; opacity: 1;" transform=" matrix(1 0 0 1 0 0) " stroke-linecap="round" />
	<path d="M 65.297 89.5 H 24.703 v -4.746 c 0 -1.455 1.18 -2.635 2.635 -2.635 h 35.324 c 1.455 0 2.635 1.18 2.635 2.635 V 89.5 z" style="stroke: none; stroke-width: 1; stroke-dasharray: none; stroke-linecap: butt; stroke-linejoin: miter; stroke-miterlimit: 10; fill: rgb(172,179,186); fill-rule: nonzero; opacity: 1;" transform=" matrix(1 0 0 1 0 0) " stroke-linecap="round" />
	<path d="M 49.104 66.971 h -8.207 c -0.552 0 -1 -0.447 -1 -1 s 0.448 -1 1 -1 h 8.207 c 0.553 0 1 0.447 1 1 S 49.656 66.971 49.104 66.971 z" style="stroke: none; stroke-width: 1; stroke-dasharray: none; stroke-linecap: butt; stroke-linejoin: miter; stroke-miterlimit: 10; fill: rgb(242,242,242); fill-rule: nonzero; opacity: 1;" transform=" matrix(1 0 0 1 0 0) " stroke-linecap="round" />
	<path d="M 9.2 26.216 H 8.8 c -4.86 0 -8.8 -3.94 -8.8 -8.8 l 0 -3.054 c 5.481 -1.841 11.432 -2.016 18 0 v 3.054 C 18 22.276 14.06 26.216 9.2 26.216 z" style="stroke: none; stroke-width: 1; stroke-dasharray: none; stroke-linecap: butt; stroke-linejoin: miter; stroke-miterlimit: 10; fill: rgb(231,78,58); fill-rule: nonzero; opacity: 1;" transform=" matrix(1 0 0 1 0 0) " stroke-linecap="round" />
	<path d="M 27.2 26.216 h -0.4 c -4.86 0 -8.8 -3.94 -8.8 -8.8 v -3.054 c 6.388 -1.301 12.427 -1.433 18 0 v 3.054 C 36 22.276 32.06 26.216 27.2 26.216 z" style="stroke: none; stroke-width: 1; stroke-dasharray: none; stroke-linecap: butt; stroke-linejoin: miter; stroke-miterlimit: 10; fill: rgb(176,182,188); fill-rule: nonzero; opacity: 1;" transform=" matrix(1 0 0 1 0 0) " stroke-linecap="round" />
	<path d="M 80.8 26.216 h 0.4 c 4.86 0 8.8 -3.94 8.8 -8.8 v -3.054 c -5.589 -1.483 -11.652 -1.253 -18 0 v 3.054 C 72 22.276 75.94 26.216 80.8 26.216 z" style="stroke: none; stroke-width: 1; stroke-dasharray: none; stroke-linecap: butt; stroke-linejoin: miter; stroke-miterlimit: 10; fill: rgb(231,78,58); fill-rule: nonzero; opacity: 1;" transform=" matrix(1 0 0 1 0 0) " stroke-linecap="round" />
	<path d="M 62.8 26.216 h 0.4 c 4.86 0 8.8 -3.94 8.8 -8.8 v -3.054 c -6 -2.558 -12 -2.558 -18 0 v 3.054 C 54 22.276 57.94 26.216 62.8 26.216 z" style="stroke: none; stroke-width: 1; stroke-dasharray: none; stroke-linecap: butt; stroke-linejoin: miter; stroke-miterlimit: 10; fill: rgb(176,182,188); fill-rule: nonzero; opacity: 1;" transform=" matrix(1 0 0 1 0 0) " stroke-linecap="round" />
	<path d="M 36 14.361 c 0.929 -3.982 0.861 -8.649 0 -13.861 H 23.225 C 19.794 5.12 18.052 9.741 18 14.361 H 36 z" style="stroke: none; stroke-width: 1; stroke-dasharray: none; stroke-linecap: butt; stroke-linejoin: miter; stroke-miterlimit: 10; fill: rgb(214,224,235); fill-rule: nonzero; opacity: 1;" transform=" matrix(1 0 0 1 0 0) " stroke-linecap="round" />
	<polygon points="0,14.36 11.39,0.5 23.23,0.5 18,14.36 " style="stroke: none; stroke-width: 1; stroke-dasharray: none; stroke-linecap: butt; stroke-linejoin: miter; stroke-miterlimit: 10; fill: rgb(255,112,88); fill-rule: nonzero; opacity: 1;" transform="  matrix(1 0 0 1 0 0) "/>
	<path d="M 54 14.361 C 51.833 9.872 52.149 5.233 54 0.5 h 12.775 c 4.264 5.189 6.219 9.858 5.225 13.861 H 54 z" style="stroke: none; stroke-width: 1; stroke-dasharray: none; stroke-linecap: butt; stroke-linejoin: miter; stroke-miterlimit: 10; fill: rgb(214,224,235); fill-rule: nonzero; opacity: 1;" transform=" matrix(1 0 0 1 0 0) " stroke-linecap="round" />
	<polygon points="90,14.36 78.61,0.5 66.78,0.5 72,14.36 " style="stroke: none; stroke-width: 1; stroke-dasharray: none; stroke-linecap: butt; stroke-linejoin: miter; stroke-miterlimit: 10; fill: rgb(255,112,88); fill-rule: nonzero; opacity: 1;" transform="  matrix(1 0 0 1 0 0) "/>
	<path d="M 45.2 26.216 h -0.4 c -4.86 0 -8.8 -3.94 -8.8 -8.8 v -3.054 c 6 -2.558 12 -2.558 18 0 v 3.054 C 54 22.276 50.06 26.216 45.2 26.216 z" style="stroke: none; stroke-width: 1; stroke-dasharray: none; stroke-linecap: butt; stroke-linejoin: miter; stroke-miterlimit: 10; fill: rgb(231,78,58); fill-rule: nonzero; opacity: 1;" transform=" matrix(1 0 0 1 0 0) " stroke-linecap="round" />
	<polygon points="36,0.5 46.77,0.5 54,0.5 54,14.36 36,14.36 " style="stroke: none; stroke-width: 1; stroke-dasharray: none; stroke-linecap: butt; stroke-linejoin: miter; stroke-miterlimit: 10; fill: rgb(255,112,88); fill-rule: nonzero; opacity: 1;" transform="  matrix(1 0 0 1 0 0) "/>
</g>
</svg>