<svg xmlns="http://www.w3.org/2000/svg" xmlns:xlink="http://www.w3.org/1999/xlink" version="1.1" width="256" height="256" viewBox="0 0 256 256" xml:space="preserve">

<defs>
</defs>
<g style="stroke: none; stroke-width: 0; stroke-dasharray: none; stroke-linecap: butt; stroke-linejoin: miter; stroke-miterlimit: 10; fill: none; fill-rule: nonzero; opacity: 1;" transform="translate(1.4065934065934016 1.4065934065934016) scale(2.81 2.81)" >
	<path d="M 55.395 66.778 H 6.521 c -2.22 0 -4.026 -1.807 -4.026 -4.026 V 27.21 c 0 -2.22 1.806 -4.026 4.026 -4.026 h 72.45 c 2.22 0 4.026 1.806 4.026 4.026 v 31.693 c 0 1.104 -0.896 2 -2 2 s -2 -0.896 -2 -2 V 27.21 L 6.521 27.184 L 6.494 62.752 l 48.9 0.026 c 1.104 0 2 0.896 2 2 S 56.499 66.778 55.395 66.778 z" style="stroke: none; stroke-width: 1; stroke-dasharray: none; stroke-linecap: butt; stroke-linejoin: miter; stroke-miterlimit: 10; fill: rgb(71,176,201); fill-rule: nonzero; opacity: 1;" transform=" matrix(1 0 0 1 0 0) " stroke-linecap="round" />
	<path d="M 30.695 37.316 c 0 -3.566 -2.901 -6.467 -6.467 -6.467 h -9.054 c -1.104 0 -2 0.896 -2 2 v 11.558 v 11.558 c 0 1.104 0.896 2 2 2 h 9.054 c 3.566 0 6.467 -2.901 6.467 -6.467 v -2.624 c 0 -1.733 -0.689 -3.305 -1.802 -4.467 c 1.113 -1.162 1.802 -2.734 1.802 -4.467 V 37.316 z M 17.175 34.849 h 7.054 c 1.36 0 2.467 1.106 2.467 2.467 v 2.625 c 0 1.36 -1.106 2.467 -2.467 2.467 h -7.054 V 34.849 z M 26.695 51.498 c 0 1.36 -1.106 2.467 -2.467 2.467 h -7.054 v -7.558 h 7.054 c 1.36 0 2.467 1.106 2.467 2.467 V 51.498 z" style="stroke: none; stroke-width: 1; stroke-dasharray: none; stroke-linecap: butt; stroke-linejoin: miter; stroke-miterlimit: 10; fill: rgb(235,79,79); fill-rule: nonzero; opacity: 1;" transform=" matrix(1 0 0 1 0 0) " stroke-linecap="round" />
	<path d="M 43.319 57.965 c -4.831 0 -8.76 -3.653 -8.76 -8.144 V 32.849 c 0 -1.104 0.896 -2 2 -2 s 2 0.896 2 2 v 16.972 c 0 2.285 2.135 4.144 4.76 4.144 s 4.761 -1.858 4.761 -4.144 V 32.849 c 0 -1.104 0.896 -2 2 -2 s 2 0.896 2 2 v 16.972 C 52.08 54.312 48.15 57.965 43.319 57.965 z" style="stroke: none; stroke-width: 1; stroke-dasharray: none; stroke-linecap: butt; stroke-linejoin: miter; stroke-miterlimit: 10; fill: rgb(235,79,79); fill-rule: nonzero; opacity: 1;" transform=" matrix(1 0 0 1 0 0) " stroke-linecap="round" />
	<path d="M 71.376 31.153 c -0.939 -0.586 -2.172 -0.299 -2.756 0.637 l -5.064 8.111 l -5.064 -8.111 c -0.584 -0.937 -1.817 -1.223 -2.756 -0.637 c -0.937 0.584 -1.222 1.818 -0.637 2.755 l 6.456 10.342 v 11.715 c 0 1.104 0.896 2 2 2 s 2 -0.896 2 -2 V 44.249 l 6.457 -10.341 C 72.598 32.972 72.313 31.738 71.376 31.153 z" style="stroke: none; stroke-width: 1; stroke-dasharray: none; stroke-linecap: butt; stroke-linejoin: miter; stroke-miterlimit: 10; fill: rgb(235,79,79); fill-rule: nonzero; opacity: 1;" transform=" matrix(1 0 0 1 0 0) " stroke-linecap="round" />
	<path d="M 80.253 86.575 c -0.512 0 -1.023 -0.195 -1.414 -0.586 l -6.126 -6.126 l -2.419 2.419 c -0.5 0.5 -1.227 0.697 -1.91 0.523 c -0.685 -0.176 -1.226 -0.699 -1.424 -1.377 l -5.324 -18.243 c -0.205 -0.701 -0.011 -1.458 0.506 -1.975 c 0.517 -0.518 1.277 -0.708 1.975 -0.506 l 18.243 5.324 c 0.678 0.198 1.201 0.739 1.377 1.424 c 0.175 0.685 -0.023 1.411 -0.523 1.91 l -2.419 2.419 l 6.126 6.126 c 0.781 0.781 0.781 2.047 0 2.828 l -5.253 5.253 C 81.276 86.38 80.765 86.575 80.253 86.575 z M 72.713 75.035 c 0.512 0 1.023 0.195 1.414 0.586 l 6.126 6.126 l 2.425 -2.425 l -6.126 -6.126 c -0.781 -0.781 -0.781 -2.047 0 -2.828 l 1.445 -1.445 l -11.499 -3.355 l 3.355 11.499 l 1.445 -1.445 C 71.689 75.23 72.201 75.035 72.713 75.035 z" style="stroke: none; stroke-width: 1; stroke-dasharray: none; stroke-linecap: butt; stroke-linejoin: miter; stroke-miterlimit: 10; fill: rgb(71,176,201); fill-rule: nonzero; opacity: 1;" transform=" matrix(1 0 0 1 0 0) " stroke-linecap="round" />
	<path d="M 45 20.035 c -1.104 0 -2 -0.896 -2 -2 V 2 c 0 -1.104 0.896 -2 2 -2 s 2 0.896 2 2 v 16.035 C 47 19.14 46.104 20.035 45 20.035 z" style="stroke: none; stroke-width: 1; stroke-dasharray: none; stroke-linecap: butt; stroke-linejoin: miter; stroke-miterlimit: 10; fill: rgb(71,176,201); fill-rule: nonzero; opacity: 1;" transform=" matrix(1 0 0 1 0 0) " stroke-linecap="round" />
	<path d="M 57.968 20.035 c -0.512 0 -1.023 -0.195 -1.414 -0.586 c -0.781 -0.781 -0.781 -2.047 0 -2.828 l 9.943 -9.943 c 0.781 -0.781 2.047 -0.781 2.828 0 c 0.781 0.781 0.781 2.047 0 2.828 l -9.943 9.943 C 58.991 19.84 58.479 20.035 57.968 20.035 z" style="stroke: none; stroke-width: 1; stroke-dasharray: none; stroke-linecap: butt; stroke-linejoin: miter; stroke-miterlimit: 10; fill: rgb(71,176,201); fill-rule: nonzero; opacity: 1;" transform=" matrix(1 0 0 1 0 0) " stroke-linecap="round" />
	<path d="M 32.929 20.035 c -0.512 0 -1.023 -0.195 -1.414 -0.586 l -9.944 -9.943 c -0.781 -0.781 -0.781 -2.047 0 -2.828 c 0.78 -0.781 2.047 -0.781 2.828 0 l 9.944 9.943 c 0.781 0.781 0.781 2.047 0 2.828 C 33.953 19.84 33.441 20.035 32.929 20.035 z" style="stroke: none; stroke-width: 1; stroke-dasharray: none; stroke-linecap: butt; stroke-linejoin: miter; stroke-miterlimit: 10; fill: rgb(71,176,201); fill-rule: nonzero; opacity: 1;" transform=" matrix(1 0 0 1 0 0) " stroke-linecap="round" />
	<path d="M 45 90 c -1.104 0 -2 -0.896 -2 -2 V 71.965 c 0 -1.104 0.896 -2 2 -2 s 2 0.896 2 2 V 88 C 47 89.104 46.104 90 45 90 z" style="stroke: none; stroke-width: 1; stroke-dasharray: none; stroke-linecap: butt; stroke-linejoin: miter; stroke-miterlimit: 10; fill: rgb(71,176,201); fill-rule: nonzero; opacity: 1;" transform=" matrix(1 0 0 1 0 0) " stroke-linecap="round" />
	<path d="M 22.985 83.908 c -0.512 0 -1.024 -0.195 -1.414 -0.586 c -0.781 -0.781 -0.781 -2.047 0 -2.828 l 9.944 -9.943 c 0.78 -0.781 2.048 -0.781 2.828 0 c 0.781 0.781 0.781 2.047 0 2.828 l -9.944 9.943 C 24.009 83.713 23.497 83.908 22.985 83.908 z" style="stroke: none; stroke-width: 1; stroke-dasharray: none; stroke-linecap: butt; stroke-linejoin: miter; stroke-miterlimit: 10; fill: rgb(71,176,201); fill-rule: nonzero; opacity: 1;" transform=" matrix(1 0 0 1 0 0) " stroke-linecap="round" />
</g>
</svg>