<svg xmlns="http://www.w3.org/2000/svg" xmlns:xlink="http://www.w3.org/1999/xlink" version="1.1" width="256" height="256" viewBox="0 0 256 256" xml:space="preserve">

<defs>
</defs>
<g style="stroke: none; stroke-width: 0; stroke-dasharray: none; stroke-linecap: butt; stroke-linejoin: miter; stroke-miterlimit: 10; fill: none; fill-rule: nonzero; opacity: 1;" transform="translate(1.4065934065934016 1.4065934065934016) scale(2.81 2.81)" >
	<path d="M 83.914 69.449 V 17.907 c 0 -1.263 -1.024 -2.288 -2.288 -2.288 H 8.373 c -1.263 0 -2.288 1.024 -2.288 2.288 v 51.541 H 83.914 z" style="stroke: none; stroke-width: 1; stroke-dasharray: none; stroke-linecap: butt; stroke-linejoin: miter; stroke-miterlimit: 10; fill: rgb(58,87,144); fill-rule: nonzero; opacity: 1;" transform=" matrix(1 0 0 1 0 0) " stroke-linecap="round" />
	<path d="M 78.5 59.449 v -36.31 c 0 -1.162 -0.942 -2.104 -2.104 -2.104 H 13.604 c -1.162 0 -2.104 0.942 -2.104 2.104 v 36.31 H 78.5 z" style="stroke: none; stroke-width: 1; stroke-dasharray: none; stroke-linecap: butt; stroke-linejoin: miter; stroke-miterlimit: 10; fill: rgb(106,138,177); fill-rule: nonzero; opacity: 1;" transform=" matrix(1 0 0 1 0 0) " stroke-linecap="round" />
	<path d="M 56.997 64.449 v 3.857 H 33.003 v -3.857 H 1 v 3.234 c 0 3.699 2.999 6.698 6.698 6.698 h 74.604 c 3.699 0 6.698 -2.999 6.698 -6.698 v -3.234 H 56.997 z" style="stroke: none; stroke-width: 1; stroke-dasharray: none; stroke-linecap: butt; stroke-linejoin: miter; stroke-miterlimit: 10; fill: rgb(85,159,179); fill-rule: nonzero; opacity: 1;" transform=" matrix(1 0 0 1 0 0) " stroke-linecap="round" />
	<path d="M 82.302 75.38 H 7.698 C 3.454 75.38 0 71.927 0 67.682 v -3.233 c 0 -0.553 0.448 -1 1 -1 h 32.003 c 0.552 0 1 0.447 1 1 v 2.857 h 21.994 v -2.857 c 0 -0.553 0.447 -1 1 -1 H 89 c 0.553 0 1 0.447 1 1 v 3.233 C 90 71.927 86.547 75.38 82.302 75.38 z M 2 65.448 v 2.233 c 0 3.142 2.556 5.698 5.698 5.698 h 74.604 c 3.142 0 5.698 -2.557 5.698 -5.698 v -2.233 H 57.997 v 2.857 c 0 0.553 -0.447 1 -1 1 H 33.003 c -0.552 0 -1 -0.447 -1 -1 v -2.857 H 2 z" style="stroke: none; stroke-width: 1; stroke-dasharray: none; stroke-linecap: butt; stroke-linejoin: miter; stroke-miterlimit: 10; fill: rgb(35,45,64); fill-rule: nonzero; opacity: 1;" transform=" matrix(1 0 0 1 0 0) " stroke-linecap="round" />
	<path d="M 83.914 65.448 c -0.553 0 -1 -0.447 -1 -1 V 17.907 c 0 -0.71 -0.577 -1.288 -1.287 -1.288 H 8.374 c -0.71 0 -1.288 0.578 -1.288 1.288 v 46.541 c 0 0.553 -0.448 1 -1 1 s -1 -0.447 -1 -1 V 17.907 c 0 -1.813 1.475 -3.288 3.288 -3.288 h 73.253 c 1.813 0 3.287 1.475 3.287 3.288 v 46.541 C 84.914 65.001 84.467 65.448 83.914 65.448 z" style="stroke: none; stroke-width: 1; stroke-dasharray: none; stroke-linecap: butt; stroke-linejoin: miter; stroke-miterlimit: 10; fill: rgb(35,45,64); fill-rule: nonzero; opacity: 1;" transform=" matrix(1 0 0 1 0 0) " stroke-linecap="round" />
	<path d="M 78.5 60.448 h -67 c -0.552 0 -1 -0.447 -1 -1 v -36.31 c 0 -1.712 1.393 -3.104 3.104 -3.104 h 62.791 c 1.712 0 3.104 1.393 3.104 3.104 v 36.31 C 79.5 60.001 79.053 60.448 78.5 60.448 z M 12.5 58.448 h 65 v -35.31 c 0 -0.609 -0.495 -1.104 -1.104 -1.104 H 13.604 c -0.609 0 -1.104 0.496 -1.104 1.104 V 58.448 z" style="stroke: none; stroke-width: 1; stroke-dasharray: none; stroke-linecap: butt; stroke-linejoin: miter; stroke-miterlimit: 10; fill: rgb(35,45,64); fill-rule: nonzero; opacity: 1;" transform=" matrix(1 0 0 1 0 0) " stroke-linecap="round" />
	<polyline points="56.45,36.26 56.45,53.27 33.55,53.27 33.55,36.26 " style="stroke: none; stroke-width: 1; stroke-dasharray: none; stroke-linecap: butt; stroke-linejoin: miter; stroke-miterlimit: 10; fill: rgb(196,164,65); fill-rule: nonzero; opacity: 1;" transform="  matrix(1 0 0 1 0 0) "/>
	<rect x="38.41" y="45.78" rx="0" ry="0" width="13.18" height="7.5" style="stroke: none; stroke-width: 1; stroke-dasharray: none; stroke-linecap: butt; stroke-linejoin: miter; stroke-miterlimit: 10; fill: rgb(158,158,158); fill-rule: nonzero; opacity: 1;" transform=" matrix(1 0 0 1 0 0) "/>
	<path d="M 35.372 41.251 L 35.372 41.251 c -2.658 0 -4.813 -2.155 -4.813 -4.813 l 4.886 -8.164 h 6.368 l -1.629 8.164 C 40.185 39.097 38.03 41.251 35.372 41.251 z" style="stroke: none; stroke-width: 1; stroke-dasharray: none; stroke-linecap: butt; stroke-linejoin: miter; stroke-miterlimit: 10; fill: rgb(207,74,74); fill-rule: nonzero; opacity: 1;" transform=" matrix(1 0 0 1 0 0) " stroke-linecap="round" />
	<path d="M 45.002 41.251 L 45.002 41.251 c -2.658 0 -4.813 -2.155 -4.813 -4.813 l 1.629 -8.164 h 6.368 l 1.629 8.164 C 49.815 39.097 47.66 41.251 45.002 41.251 z" style="stroke: none; stroke-width: 1; stroke-dasharray: none; stroke-linecap: butt; stroke-linejoin: miter; stroke-miterlimit: 10; fill: rgb(207,74,74); fill-rule: nonzero; opacity: 1;" transform=" matrix(1 0 0 1 0 0) " stroke-linecap="round" />
	<path d="M 54.628 41.251 L 54.628 41.251 c -2.658 0 -4.813 -2.155 -4.813 -4.813 l -1.629 -8.164 h 6.368 l 4.886 8.164 C 59.441 39.097 57.286 41.251 54.628 41.251 z" style="stroke: none; stroke-width: 1; stroke-dasharray: none; stroke-linecap: butt; stroke-linejoin: miter; stroke-miterlimit: 10; fill: rgb(207,74,74); fill-rule: nonzero; opacity: 1;" transform=" matrix(1 0 0 1 0 0) " stroke-linecap="round" />
	<path d="M 35.372 42.251 c -3.205 0 -5.813 -2.608 -5.813 -5.813 c 0 -0.181 0.049 -0.358 0.142 -0.514 l 4.886 -8.164 c 0.181 -0.302 0.506 -0.486 0.858 -0.486 h 6.368 c 0.299 0 0.583 0.134 0.773 0.366 s 0.266 0.536 0.208 0.83 l -1.61 8.072 C 41.129 39.7 38.543 42.251 35.372 42.251 z M 31.568 36.7 c 0.135 1.981 1.79 3.551 3.804 3.551 c 2.103 0 3.813 -1.71 3.813 -3.813 c 0 -0.066 0.006 -0.131 0.02 -0.196 l 1.39 -6.968 h -4.582 L 31.568 36.7 z" style="stroke: none; stroke-width: 1; stroke-dasharray: none; stroke-linecap: butt; stroke-linejoin: miter; stroke-miterlimit: 10; fill: rgb(35,45,64); fill-rule: nonzero; opacity: 1;" transform=" matrix(1 0 0 1 0 0) " stroke-linecap="round" />
	<path d="M 45.002 42.251 c -3.205 0 -5.813 -2.608 -5.813 -5.813 c 0 -0.066 0.006 -0.131 0.02 -0.196 l 1.628 -8.164 c 0.093 -0.467 0.503 -0.804 0.98 -0.804 h 6.369 c 0.477 0 0.888 0.337 0.98 0.804 l 1.629 8.164 c 0.013 0.064 0.02 0.13 0.02 0.196 C 50.815 39.644 48.207 42.251 45.002 42.251 z M 41.19 36.532 c 0.05 2.06 1.741 3.72 3.812 3.72 c 2.071 0 3.763 -1.66 3.813 -3.72 l -1.448 -7.257 h -4.728 L 41.19 36.532 z" style="stroke: none; stroke-width: 1; stroke-dasharray: none; stroke-linecap: butt; stroke-linejoin: miter; stroke-miterlimit: 10; fill: rgb(35,45,64); fill-rule: nonzero; opacity: 1;" transform=" matrix(1 0 0 1 0 0) " stroke-linecap="round" />
	<path d="M 54.628 42.251 c -3.171 0 -5.757 -2.552 -5.812 -5.709 l -1.61 -8.072 c -0.059 -0.294 0.018 -0.599 0.207 -0.83 c 0.19 -0.231 0.474 -0.366 0.773 -0.366 h 6.368 c 0.352 0 0.678 0.185 0.858 0.486 l 4.886 8.164 c 0.093 0.155 0.142 0.333 0.142 0.514 C 60.44 39.644 57.833 42.251 54.628 42.251 z M 49.405 29.274 l 1.391 6.968 c 0.013 0.064 0.02 0.13 0.02 0.196 c 0 2.103 1.71 3.813 3.813 3.813 c 2.015 0 3.669 -1.57 3.804 -3.551 l -4.444 -7.426 H 49.405 z" style="stroke: none; stroke-width: 1; stroke-dasharray: none; stroke-linecap: butt; stroke-linejoin: miter; stroke-miterlimit: 10; fill: rgb(35,45,64); fill-rule: nonzero; opacity: 1;" transform=" matrix(1 0 0 1 0 0) " stroke-linecap="round" />
	<path d="M 56.453 54.274 H 33.547 c -0.552 0 -1 -0.447 -1 -1 V 40.89 c 0 -0.552 0.448 -1 1 -1 s 1 0.448 1 1 v 11.384 h 20.906 V 40.891 c 0 -0.552 0.447 -1 1 -1 s 1 0.448 1 1 v 12.384 C 57.453 53.827 57.006 54.274 56.453 54.274 z" style="stroke: none; stroke-width: 1; stroke-dasharray: none; stroke-linecap: butt; stroke-linejoin: miter; stroke-miterlimit: 10; fill: rgb(35,45,64); fill-rule: nonzero; opacity: 1;" transform=" matrix(1 0 0 1 0 0) " stroke-linecap="round" />
	<path d="M 51.589 54.274 H 38.412 c -0.552 0 -1 -0.447 -1 -1 v -7.497 c 0 -0.552 0.448 -1 1 -1 h 13.177 c 0.553 0 1 0.448 1 1 v 7.497 C 52.589 53.827 52.142 54.274 51.589 54.274 z M 39.412 52.274 h 11.177 v -5.497 H 39.412 V 52.274 z" style="stroke: none; stroke-width: 1; stroke-dasharray: none; stroke-linecap: butt; stroke-linejoin: miter; stroke-miterlimit: 10; fill: rgb(35,45,64); fill-rule: nonzero; opacity: 1;" transform=" matrix(1 0 0 1 0 0) " stroke-linecap="round" />
</g>
</svg>