<svg xmlns="http://www.w3.org/2000/svg" xmlns:xlink="http://www.w3.org/1999/xlink" version="1.1" width="256" height="256" viewBox="0 0 256 256" xml:space="preserve">

<defs>
</defs>
<g style="stroke: none; stroke-width: 0; stroke-dasharray: none; stroke-linecap: butt; stroke-linejoin: miter; stroke-miterlimit: 10; fill: none; fill-rule: nonzero; opacity: 1;" transform="translate(1.4065934065934016 1.4065934065934016) scale(2.81 2.81)" >
	<path d="M 16.334 89 H 4.645 c -1.354 0 -2.452 -1.098 -2.452 -2.452 v -31.42 c 0 -1.354 1.098 -2.452 2.452 -2.452 h 11.688 c 1.354 0 2.452 1.098 2.452 2.452 v 31.42 C 18.785 87.902 17.688 89 16.334 89 z" style="stroke: none; stroke-width: 1; stroke-dasharray: none; stroke-linecap: butt; stroke-linejoin: miter; stroke-miterlimit: 10; fill: rgb(89,152,185); fill-rule: nonzero; opacity: 1;" transform=" matrix(1 0 0 1 0 0) " stroke-linecap="round" />
	<path d="M 87.221 62.251 c -2.44 -4.052 -6.151 -6.471 -9.928 -6.471 l 0 0 c -1.272 0 -2.517 0.27 -3.7 0.802 l -14.398 6.693 l -0.782 0.364 l 0.429 0.748 l 0.925 1.613 c 0.219 0.382 0.087 0.871 -0.294 1.091 c -7.722 4.447 -14.346 7.181 -20.249 8.361 c -0.052 0.011 -0.104 0.016 -0.158 0.016 c -0.379 0 -0.708 -0.27 -0.783 -0.644 c -0.042 -0.21 0 -0.423 0.118 -0.6 s 0.299 -0.299 0.508 -0.341 c 5.385 -1.077 11.395 -3.494 18.373 -7.391 l 0.698 -0.39 l -0.398 -0.694 l -0.265 -0.462 l -0.727 -1.267 c -1.862 -3.244 -3.872 -4.69 -6.515 -4.69 c -0.449 0 -0.929 0.043 -1.426 0.129 l -14.068 2.54 c -0.224 0.017 -0.443 0.025 -0.661 0.025 c -2.35 0 -4.425 -0.967 -6.256 -1.822 c -1.811 -0.843 -3.516 -1.636 -5.422 -1.636 c -0.192 0 -0.384 0.008 -0.578 0.025 l -1.814 0.161 l -0.721 0.064 v 0.724 v 24.734 v 0.865 l 0.861 -0.077 l 4.875 -0.433 c 0.369 -0.033 0.751 -0.05 1.136 -0.05 c 3.127 0 6.126 1.114 9.026 2.191 c 2.76 1.025 5.355 1.99 7.914 1.99 c 0.287 0 0.573 -0.013 0.848 -0.037 c 5.804 -0.506 20.914 -9.973 36.91 -19.997 c 1.951 -1.223 3.906 -2.449 5.871 -3.673 C 87.427 64.178 87.718 63.074 87.221 62.251 z M 84.579 60.05" style="stroke: none; stroke-width: 1; stroke-dasharray: none; stroke-linecap: butt; stroke-linejoin: miter; stroke-miterlimit: 10; fill: rgb(230,176,117); fill-rule: nonzero; opacity: 1;" transform=" matrix(1 0 0 1 0 0) " stroke-linecap="round" />
	<path d="M 43.09 90 c -2.863 0 -5.694 -1.053 -8.442 -2.074 c -3.025 -1.123 -6.155 -2.291 -9.253 -2.011 l -6.521 0.579 c -0.275 0.03 -0.556 -0.069 -0.764 -0.259 c -0.207 -0.189 -0.325 -0.457 -0.325 -0.737 V 57.931 c 0 -0.519 0.395 -0.95 0.912 -0.996 l 3.222 -0.285 c 2.593 -0.227 4.747 0.777 6.836 1.75 c 1.967 0.917 3.829 1.788 5.963 1.607 L 48.4 57.524 c 4.897 -0.839 7.59 2 9.228 4.587 l 14.955 -6.953 c 5.623 -2.521 11.94 0.008 15.731 6.3 c 0.99 1.645 0.439 3.831 -1.228 4.873 c -1.941 1.211 -3.875 2.423 -5.789 3.622 C 64.626 80.398 50.228 89.419 44.071 89.957 C 43.744 89.986 43.417 90 43.09 90 z M 26.352 83.873 c 3.132 0 6.106 1.105 8.993 2.179 c 2.985 1.109 5.804 2.16 8.551 1.913 c 5.679 -0.496 20.572 -9.828 36.34 -19.708 c 1.915 -1.199 3.849 -2.412 5.792 -3.624 c 0.747 -0.467 1.005 -1.428 0.574 -2.143 c -3.244 -5.383 -8.545 -7.599 -13.186 -5.512 l -15.759 7.327 c -0.476 0.218 -1.031 0.039 -1.289 -0.409 c -1.475 -2.57 -3.538 -5.094 -7.62 -4.401 l -13.77 2.495 c -2.757 0.232 -4.95 -0.789 -7.067 -1.775 c -1.935 -0.902 -3.764 -1.751 -5.815 -1.571 l -2.31 0.204 v 25.559 l 5.432 -0.482 C 25.598 83.889 25.976 83.873 26.352 83.873 z" style="stroke: none; stroke-width: 1; stroke-dasharray: none; stroke-linecap: butt; stroke-linejoin: miter; stroke-miterlimit: 10; fill: rgb(0,0,0); fill-rule: nonzero; opacity: 1;" transform=" matrix(1 0 0 1 0 0) " stroke-linecap="round" />
	<path d="M 39.252 75.634 c -0.467 0 -0.885 -0.328 -0.979 -0.804 c -0.108 -0.542 0.243 -1.068 0.785 -1.177 c 5.411 -1.082 11.496 -3.555 18.576 -7.553 l -1.266 -2.206 c -0.275 -0.479 -0.109 -1.091 0.369 -1.365 c 0.48 -0.274 1.091 -0.108 1.365 0.369 l 1.765 3.076 c 0.274 0.479 0.109 1.09 -0.368 1.364 c -7.643 4.4 -14.202 7.107 -20.049 8.276 C 39.383 75.629 39.317 75.634 39.252 75.634 z" style="stroke: none; stroke-width: 1; stroke-dasharray: none; stroke-linecap: butt; stroke-linejoin: miter; stroke-miterlimit: 10; fill: rgb(0,0,0); fill-rule: nonzero; opacity: 1;" transform=" matrix(1 0 0 1 0 0) " stroke-linecap="round" />
	<path d="M 16.334 90 H 4.645 c -1.903 0 -3.452 -1.548 -3.452 -3.451 v -31.42 c 0 -1.903 1.548 -3.451 3.452 -3.451 h 11.688 c 1.903 0 3.452 1.548 3.452 3.451 v 31.42 C 19.785 88.452 18.237 90 16.334 90 z M 4.645 53.677 c -0.8 0 -1.452 0.651 -1.452 1.451 v 31.42 c 0 0.8 0.651 1.451 1.452 1.451 h 11.688 c 0.8 0 1.452 -0.651 1.452 -1.451 v -31.42 c 0 -0.8 -0.651 -1.451 -1.452 -1.451 H 4.645 z" style="stroke: none; stroke-width: 1; stroke-dasharray: none; stroke-linecap: butt; stroke-linejoin: miter; stroke-miterlimit: 10; fill: rgb(0,0,0); fill-rule: nonzero; opacity: 1;" transform=" matrix(1 0 0 1 0 0) " stroke-linecap="round" />
	<path d="M 50.008 3.624 l 4.832 -2.362 c 1.231 -0.602 2.717 -0.119 3.359 1.091 l 2.521 4.751 c 0.367 0.692 1.033 1.176 1.805 1.311 l 5.297 0.929 c 1.349 0.237 2.268 1.501 2.076 2.858 l -0.753 5.325 c -0.11 0.776 0.145 1.559 0.689 2.122 l 3.739 3.865 c 0.953 0.985 0.953 2.547 0 3.532 l -3.739 3.865 c -0.545 0.563 -0.799 1.346 -0.689 2.122 l 0.753 5.325 c 0.192 1.357 -0.727 2.621 -2.076 2.858 l -5.297 0.929 c -0.772 0.135 -1.438 0.619 -1.805 1.311 l -2.521 4.751 c -0.642 1.21 -2.128 1.693 -3.359 1.091 l -4.832 -2.362 c -0.704 -0.344 -1.527 -0.344 -2.231 0 l -4.832 2.362 c -1.231 0.602 -2.717 0.119 -3.359 -1.091 l -2.521 -4.751 c -0.367 -0.692 -1.033 -1.176 -1.805 -1.311 l -5.297 -0.929 c -1.349 -0.237 -2.268 -1.501 -2.076 -2.858 l 0.753 -5.325 c 0.11 -0.776 -0.145 -1.559 -0.689 -2.122 l -3.739 -3.865 c -0.953 -0.985 -0.953 -2.547 0 -3.532 l 3.739 -3.865 c 0.545 -0.563 0.799 -1.346 0.689 -2.122 l -0.753 -5.325 c -0.192 -1.357 0.727 -2.621 2.076 -2.858 l 5.297 -0.929 c 0.772 -0.135 1.438 -0.619 1.805 -1.311 l 2.521 -4.751 c 0.642 -1.21 2.128 -1.693 3.359 -1.091 l 4.832 2.362 C 48.481 3.968 49.305 3.968 50.008 3.624 z" style="stroke: none; stroke-width: 1; stroke-dasharray: none; stroke-linecap: butt; stroke-linejoin: miter; stroke-miterlimit: 10; fill: rgb(215,92,92); fill-rule: nonzero; opacity: 1;" transform=" matrix(1 0 0 1 0 0) " stroke-linecap="round" />
	<path d="M 41.822 50.562 c -1.267 0 -2.482 -0.686 -3.119 -1.886 l -2.52 -4.751 c -0.224 -0.423 -0.623 -0.713 -1.094 -0.795 l -5.298 -0.929 c -1.892 -0.332 -3.162 -2.081 -2.893 -3.983 l 0.753 -5.325 c 0.066 -0.466 -0.09 -0.947 -0.418 -1.286 l -3.74 -3.866 c -1.335 -1.38 -1.335 -3.542 0 -4.923 l 3.74 -3.865 c 0.333 -0.344 0.485 -0.813 0.418 -1.287 l -0.753 -5.324 c -0.269 -1.902 1.002 -3.651 2.894 -3.982 l 5.297 -0.929 c 0.471 -0.083 0.871 -0.373 1.095 -0.795 l 2.52 -4.751 c 0.899 -1.696 2.957 -2.365 4.682 -1.521 l 4.832 2.362 c 0.424 0.207 0.93 0.207 1.352 0 l 0 0 L 54.4 0.364 c 1.729 -0.843 3.783 -0.175 4.682 1.521 l 2.521 4.75 c 0.224 0.422 0.623 0.712 1.094 0.795 l 5.297 0.929 c 1.892 0.331 3.163 2.08 2.893 3.983 l -0.753 5.324 c -0.066 0.474 0.086 0.943 0.418 1.287 l 3.739 3.865 c 1.336 1.38 1.336 3.543 0 4.923 l -3.739 3.865 c -0.333 0.344 -0.485 0.812 -0.418 1.287 l 0.753 5.324 c 0.27 1.901 -1.002 3.651 -2.893 3.983 l -5.297 0.929 c -0.472 0.083 -0.87 0.373 -1.094 0.795 l -2.521 4.751 c -0.9 1.699 -2.957 2.364 -4.682 1.52 l -4.832 -2.361 c -0.422 -0.207 -0.929 -0.207 -1.352 0 l -4.831 2.361 C 42.88 50.444 42.346 50.562 41.822 50.562 z M 41.827 2.002 c -0.551 0 -1.08 0.298 -1.357 0.82 l -2.52 4.751 c -0.515 0.971 -1.432 1.637 -2.515 1.828 l -5.298 0.929 c -0.823 0.144 -1.376 0.905 -1.259 1.732 l 0.753 5.325 c 0.153 1.089 -0.197 2.166 -0.96 2.957 l -3.74 3.866 c -0.581 0.601 -0.581 1.541 0 2.142 l 3.74 3.866 c 0.764 0.79 1.114 1.868 0.961 2.956 l -0.753 5.325 c -0.117 0.827 0.436 1.588 1.259 1.733 l 5.297 0.929 c 1.083 0.19 2 0.856 2.516 1.828 l 2.52 4.751 c 0.392 0.738 1.287 1.028 2.037 0.661 l 4.832 -2.361 c 0.99 -0.482 2.122 -0.481 3.109 0 l 4.832 2.361 c 0.75 0.366 1.644 0.078 2.036 -0.661 l 2.521 -4.751 c 0.516 -0.972 1.433 -1.638 2.516 -1.828 l 5.297 -0.929 c 0.823 -0.145 1.376 -0.906 1.259 -1.733 l -0.753 -5.325 c -0.153 -1.09 0.196 -2.167 0.961 -2.957 l 3.739 -3.866 c 0.581 -0.601 0.581 -1.541 0 -2.142 l -3.739 -3.865 c -0.765 -0.79 -1.114 -1.868 -0.961 -2.957 l 0.753 -5.325 c 0.117 -0.827 -0.436 -1.588 -1.259 -1.732 l -5.297 -0.929 c -1.083 -0.19 -2 -0.856 -2.516 -1.828 l -2.521 -4.751 c -0.391 -0.738 -1.285 -1.031 -2.036 -0.662 l -4.832 2.362 c -0.987 0.482 -2.118 0.483 -3.108 0 l -4.832 -2.362 C 42.287 2.054 42.055 2.002 41.827 2.002 z" style="stroke: none; stroke-width: 1; stroke-dasharray: none; stroke-linecap: butt; stroke-linejoin: miter; stroke-miterlimit: 10; fill: rgb(0,0,0); fill-rule: nonzero; opacity: 1;" transform=" matrix(1 0 0 1 0 0) " stroke-linecap="round" />
	<path d="M 41.492 23.921 c -2.735 0 -4.961 -2.225 -4.961 -4.961 c 0 -2.735 2.225 -4.961 4.961 -4.961 c 2.736 0 4.962 2.225 4.962 4.961 C 46.453 21.695 44.228 23.921 41.492 23.921 z M 41.492 15.999 c -1.633 0 -2.961 1.328 -2.961 2.961 c 0 1.633 1.328 2.961 2.961 2.961 s 2.961 -1.329 2.961 -2.961 C 44.453 17.327 43.125 15.999 41.492 15.999 z" style="stroke: none; stroke-width: 1; stroke-dasharray: none; stroke-linecap: butt; stroke-linejoin: miter; stroke-miterlimit: 10; fill: rgb(0,0,0); fill-rule: nonzero; opacity: 1;" transform=" matrix(1 0 0 1 0 0) " stroke-linecap="round" />
	<path d="M 39.476 36.563 c -0.241 0 -0.483 -0.087 -0.675 -0.263 c -0.407 -0.373 -0.435 -1.005 -0.062 -1.413 l 18.833 -20.564 c 0.374 -0.407 1.005 -0.436 1.413 -0.062 c 0.407 0.373 0.435 1.005 0.062 1.413 L 40.214 36.238 C 40.017 36.454 39.747 36.563 39.476 36.563 z" style="stroke: none; stroke-width: 1; stroke-dasharray: none; stroke-linecap: butt; stroke-linejoin: miter; stroke-miterlimit: 10; fill: rgb(0,0,0); fill-rule: nonzero; opacity: 1;" transform=" matrix(1 0 0 1 0 0) " stroke-linecap="round" />
	<path d="M 56.294 36.563 c -2.735 0 -4.961 -2.225 -4.961 -4.961 c 0 -2.735 2.225 -4.961 4.961 -4.961 s 4.961 2.225 4.961 4.961 C 61.255 34.337 59.029 36.563 56.294 36.563 z M 56.294 28.641 c -1.633 0 -2.961 1.328 -2.961 2.961 c 0 1.633 1.328 2.961 2.961 2.961 s 2.961 -1.329 2.961 -2.961 C 59.255 29.969 57.927 28.641 56.294 28.641 z" style="stroke: none; stroke-width: 1; stroke-dasharray: none; stroke-linecap: butt; stroke-linejoin: miter; stroke-miterlimit: 10; fill: rgb(0,0,0); fill-rule: nonzero; opacity: 1;" transform=" matrix(1 0 0 1 0 0) " stroke-linecap="round" />
</g>
</svg>